<svg xmlns="http://www.w3.org/2000/svg" viewBox="0 0 64 64" width="64" height="64">
  <defs><clipPath id="c"><circle cx="32" cy="32" r="32"/></clipPath></defs>
  <g clip-path="url(#c)">
    <rect width="64" height="64" fill="#E4EEFB"/>
    <path d="M32 36c11 0 19 7.5 20.5 18.5L54 64H10l1.5-9.5C13 43.5 21 36 32 36Z" fill="#4B6BA5"/>
    <circle cx="32" cy="24" r="13" fill="#F3CBA9"/>
    <path d="M19 23c0-8 6-13 13-13s13 5 13 13c0-5-4-6-13-6s-13 1-13 6Z" fill="#3A2A1C"/>
    <circle cx="27" cy="24" r="1.7" fill="#2B2B2B"/>
    <circle cx="37" cy="24" r="1.7" fill="#2B2B2B"/>
    <path d="M28 30c1.4 1.6 6.6 1.6 8 0" fill="none" stroke="#2B2B2B" stroke-width="1.5" stroke-linecap="round"/>
  </g>
</svg>
